<?xml version="1.0" standalone="no"?><!DOCTYPE svg PUBLIC "-//W3C//DTD SVG 1.1//EN" "http://www.w3.org/Graphics/SVG/1.1/DTD/svg11.dtd"><svg t="1516175879600" class="icon" style="" viewBox="0 0 1024 1024" version="1.1" xmlns="http://www.w3.org/2000/svg" p-id="7183" xmlns:xlink="http://www.w3.org/1999/xlink" width="200" height="200"><defs><style type="text/css"></style></defs><path d="M512 512m-512 0a512 512 0 1 0 1024 0 512 512 0 1 0-1024 0Z" fill="#FBD000" p-id="7184"></path><path d="M264 824c-17.6 0-32-14.4-32-32s14.4-32 32-32 32 14.4 32 32-14.4 32-32 32z m0-48.8c-9.6 0-16.8 8-16.8 16.8 0 9.6 8 16.8 16.8 16.8 9.6 0 16.8-8 16.8-16.8 0-9.6-7.2-16.8-16.8-16.8zM864 696c-17.6 0-32-14.4-32-32s14.4-32 32-32 32 14.4 32 32-14.4 32-32 32z m0-48.8c-9.6 0-16.8 8-16.8 16.8 0 9.6 8 16.8 16.8 16.8 9.6 0 16.8-8 16.8-16.8 0-9.6-7.2-16.8-16.8-16.8zM760 256c-17.6 0-32-14.4-32-32s14.4-32 32-32 32 14.4 32 32-14.4 32-32 32z m0-48.8c-9.6 0-16.8 8-16.8 16.8 0 9.6 8 16.8 16.8 16.8 9.6 0 16.8-8 16.8-16.8 0-9.6-7.2-16.8-16.8-16.8zM272 256c-17.6 0-32-14.4-32-32s14.4-32 32-32 32 14.4 32 32-14.4 32-32 32z m0-48.8c-9.6 0-16.8 8-16.8 16.8 0 9.6 8 16.8 16.8 16.8 9.6 0 16.8-8 16.8-16.8 0-9.6-7.2-16.8-16.8-16.8zM744.8 847.2c0-3.2-3.2-6.4-8-7.2l-15.2-2.4c-4-0.8-8.8-4.8-8.8-8.8l-2.4-15.2c-0.8-4-4-8-7.2-8s-6.4 3.2-7.2 8l-2.4 15.2c-0.8 4-4.8 8.8-8.8 8.8l-15.2 2.4c-4 0.8-8 4-8 7.2s3.2 6.4 8 7.2l15.2 2.4c4 0.8 8.8 4.8 8.8 8.8l2.4 15.2c0.8 4 4 8 7.2 8s6.4-3.2 6.4-8l2.4-16.8c0.8-4 4.8-8 8.8-8.8l14.4-0.8c6.4-1.6 9.6-4 9.6-7.2zM582.4 165.6c0-3.2-3.2-6.4-8-7.2l-14.4-1.6c-4-0.8-8.8-4.8-8.8-8.8l-2.4-15.2c-0.8-4-4-8-7.2-8s-6.4 3.2-7.2 8l-2.4 15.2c-0.8 4-4.8 8.8-8.8 8.8l-15.2 2.4c-4 0.8-8 4-8 7.2s3.2 6.4 8 7.2l15.2 2.4c4 0.8 8.8 4.8 8.8 8.8l2.4 15.2c0.8 4 4 8 7.2 8s6.4-3.2 6.4-8l2.4-16.8c0.8-4 4.8-8 8.8-8.8l14.4-0.8c5.6-2.4 8.8-4.8 8.8-8z" fill="#FFFFFF" p-id="7185"></path><path d="M661.6 282.4c-98.4-11.2-144 68.8-152 79.2-7.2-10.4-44.8-89.6-152-79.2-110.4 11.2-151.2 96.8-151.2 168s29.6 140 101.6 214.4c81.6 83.2 190.4 144 202.4 144 11.2 0 118.4-60.8 200-144 72-73.6 101.6-142.4 101.6-214.4 1.6-71.2-40-155.2-150.4-168z" fill="#EA291C" p-id="7186"></path><path d="M711.2 601.6c-81.6 75.2-188 131.2-200 131.2-11.2 0-120.8-55.2-202.4-131.2-64-59.2-94.4-115.2-100.8-172-0.8 7.2-1.6 13.6-1.6 20.8 0 71.2 29.6 140 101.6 214.4 81.6 83.2 190.4 144 202.4 144 11.2 0 118.4-60.8 200-144 72-73.6 101.6-142.4 101.6-214.4 0-7.2-0.8-13.6-1.6-20.8-4.8 56.8-35.2 112.8-99.2 172z" fill="#CC1612" p-id="7187"></path><path d="M513.6 816c-15.2 0-126.4-62.4-208.8-146.4C233.6 596.8 200 527.2 200 450.4c0-81.6 54.4-168 159.2-175.2 4.8 0 10.4-0.8 15.2-0.8 58.4 0 104.8 24.8 137.6 72.8 35.2-48.8 80-73.6 133.6-73.6 6.4 0 12.8 0 19.2 0.8C782.4 288 824 377.6 824 450.4c0 76.8-33.6 147.2-104.8 219.2-78.4 80-188.8 146.4-205.6 146.4zM374.4 290.4c-4.8 0-8.8 0-13.6 0.8-69.6 4.8-144 56.8-144 159.2 0 72.8 32 139.2 100 208 81.6 82.4 184 138.4 196.8 141.6 15.2-3.2 116.8-62.4 194.4-141.6 68-69.6 100-135.2 100-208 0-66.4-37.6-147.2-144.8-160-57.6-6.4-106.4 18.4-142.4 72.8-0.8 1.6-1.6 2.4-2.4 3.2-3.2 4-10.4 4-12.8 0-0.8-0.8-1.6-2.4-3.2-4.8-11.2-17.6-44.8-71.2-128-71.2z" fill="#A81000" p-id="7188"></path><path d="M248 456c-4.8 0-8-4-8-8 0-74.4 59.2-136 131.2-136 17.6 0 35.2 3.2 51.2 10.4 4 1.6 6.4 6.4 4 11.2-1.6 4-6.4 6.4-10.4 4.8-14.4-6.4-29.6-9.6-44.8-9.6C308 328.8 256 382.4 256 448c0 4-3.2 8-8 8zM759.2 499.2c-0.8 0-2.4 0-3.2-0.8-3.2-1.6-4.8-6.4-3.2-10.4 6.4-14.4 9.6-30.4 9.6-47.2 0-4.8 3.2-8 7.2-8s7.2 3.2 7.2 8c0 19.2-3.2 36.8-10.4 54.4-2.4 2.4-4.8 4-7.2 4zM760 392c-3.2 0-5.6-1.6-7.2-4-18.4-36-56-57.6-98.4-57.6-12 0-23.2 1.6-34.4 4.8-4 1.6-8.8-0.8-10.4-4.8-1.6-4 0.8-8 4.8-9.6 12.8-4 25.6-5.6 39.2-5.6 48 0 91.2 25.6 112.8 66.4 1.6 4 0 8-4 10.4H760z" fill="#FFFFFF" p-id="7189"></path><path d="M738.4 327.2c0-3.2-3.2-6.4-8-7.2l-38.4-6.4c-4-1.6-8-5.6-8.8-9.6l-6.4-38.4c-0.8-4-4-8-7.2-8s-6.4 3.2-7.2 8l-8 38.4c-0.8 4-4.8 8.8-9.6 9.6l-37.6 6.4c-4 0.8-8 4-8 7.2s3.2 6.4 8 7.2l37.6 4.8c4 0.8 8.8 4.8 9.6 8.8l7.2 40c0.8 4 4 8 7.2 8s6.4-3.2 7.2-8l7.2-40.8c0.8-4 4.8-8 9.6-8.8l37.6-4.8c4 0.8 8-3.2 8-6.4zM200.8 601.6c0-3.2-3.2-6.4-8-7.2l-14.4-2.4c-4-0.8-8.8-4.8-8.8-8.8l-2.4-15.2c-0.8-4-4-8-7.2-8s-6.4 3.2-7.2 8l-2.4 15.2c-0.8 4-4.8 8.8-8.8 8.8l-15.2 2.4c-4 0.8-8 4-8 7.2s3.2 6.4 8 7.2l15.2 2.4c4 0.8 8.8 4.8 8.8 8.8l2.4 15.2c0.8 4 4 8 7.2 8s6.4-3.2 6.4-8l2.4-16.8c0.8-4 4.8-8 8.8-8.8l14.4-0.8c5.6-1.6 8.8-4.8 8.8-7.2z" fill="#FFFFFF" p-id="7190"></path></svg>